<?xml version="1.0" encoding="UTF-8"?>
<svg width="140" height="30" viewBox="0 0 140 30" fill="none" xmlns="http://www.w3.org/2000/svg">
  <path d="M20.5 0C9.17816 0 0 9.17816 0 20.5C0 31.8218 9.17816 41 20.5 41C31.8218 41 41 31.8218 41 20.5C41 9.17816 31.8218 0 20.5 0Z" fill="white"/>
  <path d="M50 8H56.5C58.3565 8 59.9075 8.64514 61.0577 9.93543C62.2079 11.2257 62.783 12.8416 62.783 14.7832C62.783 16.7248 62.2079 18.3407 61.0577 19.631C59.9075 20.9213 58.3565 21.5664 56.5 21.5664H53.2354V29H50V8ZM56.5 18.5283C57.4657 18.5283 58.2568 18.1941 58.8734 17.5258C59.49 16.8574 59.7982 15.9333 59.7982 14.7832C59.7982 13.633 59.49 12.709 58.8734 12.0406C58.2568 11.3723 57.4657 11.0381 56.5 11.0381H53.2354V18.5283H56.5Z" fill="white"/>
  <path d="M67.2129 13.6328H70.2471V29H67.2129V13.6328ZM66.7871 9.06543C66.7871 8.54362 66.9684 8.10026 67.3311 7.73535C67.6937 7.37044 68.1794 7.18799 68.7881 7.18799C69.3968 7.18799 69.8825 7.37044 70.2451 7.73535C70.6077 8.10026 70.7891 8.54362 70.7891 9.06543C70.7891 9.58724 70.6077 10.0306 70.2451 10.3955C69.8825 10.7604 69.3968 10.9429 68.7881 10.9429C68.1794 10.9429 67.6937 10.7604 67.3311 10.3955C66.9684 10.0306 66.7871 9.58724 66.7871 9.06543Z" fill="white"/>
  <path d="M81.0254 29.3809C78.8802 29.3809 77.1475 28.6709 75.8271 27.251C74.5068 25.8311 73.8467 23.9261 73.8467 21.5361V21.1553C73.8467 19.5075 74.1696 18.0241 74.8154 16.7051C75.4613 15.3861 76.3577 14.3667 77.5046 13.647C78.6516 12.9272 79.9232 12.5674 81.3193 12.5674C83.3324 12.5674 84.9144 13.2555 86.0654 14.6318C87.2165 16.0081 87.792 17.9512 87.792 20.4609V21.9795H76.9297C77.0215 23.3558 77.4785 24.4502 78.3008 25.2627C79.123 26.0752 80.1611 26.4814 81.415 26.4814C83.1159 26.4814 84.4997 25.7585 85.5664 24.3125L87.5254 26.1211C86.8861 27.1273 86.0085 27.9144 84.8926 28.4824C83.7767 29.0505 82.4896 29.3809 81.0254 29.3809ZM81.3096 15.4863C80.2747 15.4863 79.4329 15.8438 78.7842 16.5586C78.1354 17.2734 77.7337 18.2764 77.5791 19.5674H84.8096V19.2822C84.7503 18.0501 84.4144 17.0991 83.7021 16.4292C82.9897 15.7673 82.0739 15.4863 80.9546 15.4863H81.3096Z" fill="white"/>
  <path d="M95.0605 13.6328L95.1523 15.5918C96.3034 13.5755 97.9342 12.5674 100.045 12.5674C103.08 12.5674 104.618 14.3242 104.66 17.8379V29H101.626V17.9297C101.626 16.9235 101.406 16.1859 100.967 15.7168C100.527 15.2477 99.8158 15.0132 98.833 15.0132C97.2936 15.0132 96.1484 15.7493 95.3975 17.2217V29H92.3633V13.6328H95.0605Z" fill="white"/>
  <path d="M114.919 29.3809C112.774 29.3809 111.041 28.6709 109.721 27.251C108.4 25.8311 107.74 23.9261 107.74 21.5361V21.1553C107.74 19.5075 108.063 18.0241 108.709 16.7051C109.355 15.3861 110.251 14.3667 111.398 13.647C112.545 12.9272 113.817 12.5674 115.213 12.5674C117.226 12.5674 118.808 13.2555 119.959 14.6318C121.11 16.0081 121.686 17.9512 121.686 20.4609V21.9795H110.823C110.915 23.3558 111.372 24.4502 112.194 25.2627C113.017 26.0752 114.055 26.4814 115.309 26.4814C117.009 26.4814 118.393 25.7585 119.46 24.3125L121.419 26.1211C120.78 27.1273 119.902 27.9144 118.786 28.4824C117.67 29.0505 116.383 29.3809 114.919 29.3809ZM115.203 15.4863C114.168 15.4863 113.326 15.8438 112.678 16.5586C112.029 17.2734 111.627 18.2764 111.473 19.5674H118.704V19.2822C118.644 18.0501 118.308 17.0991 117.596 16.4292C116.883 15.7673 115.968 15.4863 114.848 15.4863H115.203Z" fill="white"/>
  <path d="M132.139 29.3809C129.994 29.3809 128.261 28.6709 126.941 27.251C125.62 25.8311 124.96 23.9261 124.96 21.5361V21.1553C124.96 19.5075 125.283 18.0241 125.929 16.7051C126.575 15.3861 127.471 14.3667 128.618 13.647C129.765 12.9272 131.037 12.5674 132.433 12.5674C134.446 12.5674 136.028 13.2555 137.179 14.6318C138.33 16.0081 138.906 17.9512 138.906 20.4609V21.9795H128.043C128.135 23.3558 128.592 24.4502 129.414 25.2627C130.237 26.0752 131.275 26.4814 132.529 26.4814C134.229 26.4814 135.613 25.7585 136.68 24.3125L138.639 26.1211C138 27.1273 137.122 27.9144 136.006 28.4824C134.89 29.0505 133.603 29.3809 132.139 29.3809ZM132.423 15.4863C131.388 15.4863 130.546 15.8438 129.898 16.5586C129.249 17.2734 128.847 18.2764 128.693 19.5674H135.924V19.2822C135.864 18.0501 135.528 17.0991 134.816 16.4292C134.103 15.7673 133.188 15.4863 132.068 15.4863H132.423Z" fill="white"/>
</svg>
